<svg width="48" height="71" viewBox="0 0 48 71" fill="none" xmlns="http://www.w3.org/2000/svg">
<mask id="path-1-outside-1_1_12" maskUnits="userSpaceOnUse" x="3.70856" y="13" width="32" height="37" fill="black">
<rect fill="white" x="3.70856" y="13" width="32" height="37"/>
<path d="M25.6086 39.4H13.8586L11.0086 48H6.10856L17.0586 14.6H22.4086L33.3586 48H28.5086L25.6086 39.4ZM24.5086 35.65L19.7086 19.15L14.9586 35.65H24.5086Z"/>
</mask>
<path d="M25.6086 39.4H13.8586L11.0086 48H6.10856L17.0586 14.6H22.4086L33.3586 48H28.5086L25.6086 39.4ZM24.5086 35.65L19.7086 19.15L14.9586 35.65H24.5086Z" fill="white"/>
<path d="M25.6086 39.4L27.0299 38.9207L26.6857 37.9H25.6086V39.4ZM13.8586 39.4V37.9H12.7754L12.4347 38.9281L13.8586 39.4ZM11.0086 48V49.5H12.0917L12.4324 48.4719L11.0086 48ZM6.10856 48L4.68321 47.5327L4.03824 49.5H6.10856V48ZM17.0586 14.6V13.1H15.9718L15.6332 14.1327L17.0586 14.6ZM22.4086 14.6L23.8339 14.1327L23.4954 13.1H22.4086V14.6ZM33.3586 48V49.5H35.4289L34.7839 47.5327L33.3586 48ZM28.5086 48L27.0872 48.4793L27.4314 49.5H28.5086V48ZM24.5086 35.65V37.15H26.5071L25.9489 35.231L24.5086 35.65ZM19.7086 19.15L21.1489 18.731L19.701 13.7541L18.2671 18.735L19.7086 19.15ZM14.9586 35.65L13.5171 35.235L12.9658 37.15H14.9586V35.65ZM25.6086 39.4V37.9H13.8586V39.4V40.9H25.6086V39.4ZM13.8586 39.4L12.4347 38.9281L9.58471 47.5281L11.0086 48L12.4324 48.4719L15.2824 39.8719L13.8586 39.4ZM11.0086 48V46.5H6.10856V48V49.5H11.0086V48ZM6.10856 48L7.53392 48.4673L18.4839 15.0673L17.0586 14.6L15.6332 14.1327L4.68321 47.5327L6.10856 48ZM17.0586 14.6V16.1H22.4086V14.6V13.1H17.0586V14.6ZM22.4086 14.6L20.9832 15.0673L31.9332 48.4673L33.3586 48L34.7839 47.5327L23.8339 14.1327L22.4086 14.6ZM33.3586 48V46.5H28.5086V48V49.5H33.3586V48ZM28.5086 48L29.9299 47.5207L27.0299 38.9207L25.6086 39.4L24.1872 39.8793L27.0872 48.4793L28.5086 48ZM24.5086 35.65L25.9489 35.231L21.1489 18.731L19.7086 19.15L18.2683 19.569L23.0683 36.069L24.5086 35.65ZM19.7086 19.15L18.2671 18.735L13.5171 35.235L14.9586 35.65L16.4 36.065L21.15 19.565L19.7086 19.15ZM14.9586 35.65V37.15H24.5086V35.65V34.15H14.9586V35.65Z" fill="black" mask="url(#path-1-outside-1_1_12)"/>
<g filter="url(#filter0_d_1_12)">
<mask id="path-3-outside-2_1_12" maskUnits="userSpaceOnUse" x="3.70856" y="11" width="32" height="37" fill="black">
<rect fill="white" x="3.70856" y="11" width="32" height="37"/>
<path d="M11.2586 12.6L19.3586 40.5L27.4586 12.6H32.6586L21.9086 46H16.8086L6.05856 12.6H11.2586Z"/>
</mask>
<path d="M11.2586 12.6L19.3586 40.5L27.4586 12.6H32.6586L21.9086 46H16.8086L6.05856 12.6H11.2586Z" fill="white"/>
<path d="M11.2586 12.6L12.6991 12.1818L12.385 11.1H11.2586V12.6ZM19.3586 40.5L17.918 40.9182L19.3586 45.88L20.7991 40.9182L19.3586 40.5ZM27.4586 12.6V11.1H26.3321L26.018 12.1818L27.4586 12.6ZM32.6586 12.6L34.0864 13.0596L34.7171 11.1H32.6586V12.6ZM21.9086 46V47.5H23.0016L23.3364 46.4596L21.9086 46ZM16.8086 46L15.3807 46.4596L15.7156 47.5H16.8086V46ZM6.05856 12.6V11.1H4L4.6307 13.0596L6.05856 12.6ZM11.2586 12.6L9.81805 13.0182L17.918 40.9182L19.3586 40.5L20.7991 40.0818L12.6991 12.1818L11.2586 12.6ZM19.3586 40.5L20.7991 40.9182L28.8991 13.0182L27.4586 12.6L26.018 12.1818L17.918 40.0818L19.3586 40.5ZM27.4586 12.6V14.1H32.6586V12.6V11.1H27.4586V12.6ZM32.6586 12.6L31.2307 12.1404L20.4807 45.5404L21.9086 46L23.3364 46.4596L34.0864 13.0596L32.6586 12.6ZM21.9086 46V44.5H16.8086V46V47.5H21.9086V46ZM16.8086 46L18.2364 45.5404L7.48643 12.1404L6.05856 12.6L4.6307 13.0596L15.3807 46.4596L16.8086 46ZM6.05856 12.6V14.1H11.2586V12.6V11.1H6.05856V12.6Z" fill="black" mask="url(#path-3-outside-2_1_12)"/>
</g>
<defs>
<filter id="filter0_d_1_12" x="0" y="11.1" width="38.7171" height="44.4" filterUnits="userSpaceOnUse" color-interpolation-filters="sRGB">
<feFlood flood-opacity="0" result="BackgroundImageFix"/>
<feColorMatrix in="SourceAlpha" type="matrix" values="0 0 0 0 0 0 0 0 0 0 0 0 0 0 0 0 0 0 127 0" result="hardAlpha"/>
<feOffset dy="4"/>
<feGaussianBlur stdDeviation="2"/>
<feComposite in2="hardAlpha" operator="out"/>
<feColorMatrix type="matrix" values="0 0 0 0 0 0 0 0 0 0 0 0 0 0 0 0 0 0 0.25 0"/>
<feBlend mode="normal" in2="BackgroundImageFix" result="effect1_dropShadow_1_12"/>
<feBlend mode="normal" in="SourceGraphic" in2="effect1_dropShadow_1_12" result="shape"/>
</filter>
</defs>
</svg>
